# xmcd CD database file
#
# Track frame offsets:
#	180
#	34936
#	78963
#	97342
#	120453
#	142750
#	217540
#	239880
#	266508
#
# Disc length: 3970 seconds
#
# Revision: 0
# Processed by: cddbd v1.5.1PL0 Copyright (c) Steve Scherf et al.
# Submitted via: CDex 1.51
#
DISCID=760f8009
DTITLE=Yar Dalal - Al Ol
DYEAR=1995
DGENRE=Jazz
TTITLE0=Al Ol
TTITLE1=Taqsim Elijaho
TTITLE2=Najemat el Shemal
TTITLE3=Solo arak
TTITLE4=Taqsim Lami
TTITLE5=Shaharut
TTITLE6=Ein Radian-Taqsim
TTITLE7=Sigalla
TTITLE8=Zaman el Salaam
EXTD=YEAR: 1995
EXTT0=
EXTT1=
EXTT2=
EXTT3=
EXTT4=
EXTT5=
EXTT6=
EXTT7=
EXTT8=
PLAYORDER=
